<svg xmlns="http://www.w3.org/2000/svg" xmlns:xlink="http://www.w3.org/1999/xlink"><defs><style>
    .sprite-symbol-usage {display: none;}
    .sprite-symbol-usage:target {display: inline;}
  </style><symbol fill="currentColor" viewBox="0 0 48 48" id="check"><path d="M18.9 36.9 6.5 24.5l3.4-3.4 9 9 19.15-19.15 3.4 3.4Z" /></symbol><symbol fill="currentColor" preserveAspectRatio="xMidYMid meet" viewBox="0 0 512 512" id="checked"><g transform="matrix(.1 0 0 -.1 0 512)"><path d="m2055 5109c-934-46-1429-236-1709-657-244-367-346-923-346-1892s102-1525 346-1892c232-348 612-537 1244-617 293-37 469-46 970-46 828 0 1257 54 1633 204 247 98 446 257 583 461 183 276 279 640 326 1240 17 221 17 1079 0 1300-47 603-142 963-328 1242-247 371-664 563-1376 633-341 33-937 44-1343 24zm1200-438c1075-103 1320-350 1417-1431 9-97 13-320 13-680s-4-583-13-680c-98-1084-348-1334-1432-1432-199-18-1161-18-1360 0-1084 98-1334 348-1432 1432-18 199-18 1161 0 1360 76 841 249 1150 732 1309 215 70 453 106 900 135 117 7 1071-3 1175-13z" /><path d="m3325 3394c-16-9-243-228-502-487l-473-471-207 205c-232 230-258 247-355 236-136-16-221-156-173-284 15-40 66-97 304-336 297-299 344-337 419-337 96 0 80-14 680 584 341 339 572 577 584 601 41 78 21 192-44 252-54 51-170 69-233 37z" /></g></symbol><symbol fill="currentColor" viewBox="0 0 48 48" id="chevron"><path d="m18.75 37.2-3.35-3.35 9.9-9.9-9.9-9.9 3.35-3.35L32 23.95Z" /></symbol><symbol fill="currentColor" viewBox="0 0 48 48" id="cross"><path d="m12.45 38.85-3.3-3.3L20.7 24 9.15 12.45l3.3-3.3L24 20.7 35.55 9.15l3.3 3.3L27.3 24l11.55 11.55-3.3 3.3L24 27.3Z" /></symbol><symbol fill="currentColor" viewBox="0 0 512 512" id="cross-mark">
    <path d="m495 5109c-216-28-395-177-461-384-31-98-35-232-9-322 41-143 18-117 909-1010l831-833-831-833c-892-894-867-865-910-1012-24-80-24-220 0-300 56-189 202-335 391-391 80-24 220-24 300 0 147 43 118 18 1013 910l832 831 833-831c894-892 865-867 1012-910 79-23 219-23 300 0 188 55 336 203 391 391 23 81 23 221 0 300-43 147-18 118-910 1012l-831 833 831 833c891 893 868 867 909 1010 35 122 14 311-47 417-83 144-213 244-367 280-73 17-209 15-279-5-142-41-117-19-1009-909l-833-831-832 831c-707 705-842 835-893 861-108 56-223 77-340 62zm172-290c55-20 100-63 938-899 484-483 890-883 902-889 24-12 78-14 105-3 9 4 413 402 898 885 692 690 892 883 928 900 35 16 67 22 122 22 66 0 82-4 130-31 133-75 182-228 120-371-16-40-177-204-899-925-953-950-908-899-885-985 7-26 200-225 886-911 715-716 882-887 900-928 31-68 32-182 1-240-34-63-66-97-125-129-46-26-63-30-128-30-138 1-78-52-1045 920-503 505-882 879-898 885-44 16-89 12-127-11-19-12-422-410-895-885-956-961-897-908-1035-909-65 0-82 4-128 30-129 71-182 213-132 350 22 58 55 92 906 945 709 711 885 891 890 917 17 86 62 37-891 987-848 845-884 883-904 939-35 96-26 174 28 259 70 111 209 154 338 107z" transform="matrix(.1 0 0 -.1 0 512)" />
</symbol><symbol fill="currentColor" preserveAspectRatio="xMidYMid meet" viewBox="0 0 480 480" id="info"><path d="m2215 4794c-770-78-1403-451-1814-1070-175-264-291-547-356-869-167-835 147-1731 800-2282 637-537 1501-710 2290-457 575 184 1069 590 1362 1119 140 252 236 540 280 834 24 160 24 502 0 662-103 691-477 1285-1047 1664-306 204-612 321-987 380-94 15-444 27-528 19zm321-924c62-31 123-91 154-155 20-41 25-65 24-135 0-72-4-93-27-137-60-116-160-178-287-178-126 0-228 63-285 176-87 170 5 385 189 445 61 20 172 12 232-16zm-5-1179c69-33 112-74 150-143l34-63v-725-725l-27-51c-40-76-70-107-140-145-58-31-70-34-148-34s-90 3-148 34c-69 37-109 79-144 151l-23 45v725 725l25 50c42 86 123 152 215 176 49 13 158 2 206-20z" transform="matrix(.1 0 0 -.1 0 480)" /></symbol><symbol fill="currentColor" viewBox="0 0 48 48" id="info-outline"><path d="M22.35 34.3h3.6V22h-3.6ZM24 18.7q.9 0 1.475-.575.575-.575.575-1.425 0-.95-.575-1.525T24 14.6q-.9 0-1.475.575-.575.575-.575 1.525 0 .85.575 1.425.575.575 1.475.575Zm0 26q-4.3 0-8.05-1.625-3.75-1.625-6.575-4.45t-4.45-6.575Q3.3 28.3 3.3 24q0-4.35 1.625-8.1T9.35 9.35q2.8-2.8 6.575-4.45Q19.7 3.25 24 3.25q4.35 0 8.125 1.65 3.775 1.65 6.55 4.425t4.425 6.55Q44.75 19.65 44.75 24q0 4.3-1.65 8.075-1.65 3.775-4.45 6.575-2.8 2.8-6.55 4.425T24 44.7Zm.05-3.95q6.95 0 11.825-4.9 4.875-4.9 4.875-11.9 0-6.95-4.875-11.825Q31 7.25 24 7.25q-6.95 0-11.85 4.875Q7.25 17 7.25 24q0 6.95 4.9 11.85 4.9 4.9 11.9 4.9ZM24 24Z" /></symbol><symbol fill="currentColor" preserveAspectRatio="xMidYMid meet" viewBox="0 0 385 448" id="play"><path d="m402 4460c-95-25-172-70-242-140-72-72-115-147-140-246-20-76-20-114-20-1838 0-1935-3-1821 61-1948 41-82 145-186 227-227 133-67 288-78 423-28 46 16 500 298 1475 913 1576 994 1515 952 1593 1113 87 180 78 382-24 557-35 60-106 137-160 174-22 15-490 287-1040 605-550 317-1175 679-1390 803-214 124-419 237-455 250-91 34-211 39-308 12z" transform="matrix(.1 0 0 -.1 0 448)" /></symbol><symbol fill="currentColor" preserveAspectRatio="xMidYMid meet" viewBox="0 0 512 512" id="question"><path d="m2315 5109c-800-83-1501-518-1927-1196-604-961-490-2237 274-3068 425-462 951-737 1583-827 119-17 512-16 635 1 622 86 1148 360 1572 820 349 378 572 861 650 1406 17 118 17 512 0 630-71 497-262 943-557 1300-418 506-982 825-1630 921-123 18-478 26-600 13zm627-922c189-50 335-134 458-264 106-112 163-215 207-374 25-90 25-347-1-438-57-207-192-380-400-511-247-156-270-174-303-228-35-60-53-143-53-250v-72h-276-277l7 128c16 311 79 445 262 562 304 193 384 262 443 382 108 221 31 460-181 558-63 30-86 35-169 38-113 5-187-9-269-49-101-51-173-156-188-275l-7-59-293-3-293-2 5 32c3 18 8 60 12 93 7 71 46 200 81 270 125 249 372 418 698 479 58 11 129 14 260 12 154-3 194-7 277-29zm-251-2605c70-34 122-84 160-154 32-58 34-69 34-153s-2-95-34-153c-38-70-90-120-160-154-66-33-216-33-282 0-143 70-221 224-190 374 24 112 113 215 220 252 66 23 192 17 252-12z" transform="matrix(.1 0 0 -.1 0 512)" /></symbol><symbol fill="currentColor" preserveAspectRatio="xMidYMid meet" viewBox="0 0 480 340" id="quote"><g transform="matrix(.1 0 0 -.1 0 340)"><path d="m920 3375c-552-104-943-597-916-1155 13-273 117-516 307-714 140-147 302-246 486-299 46-13 85-26 88-29 9-9-49-140-111-252-81-145-169-273-298-436-98-122-117-152-128-198-23-103 26-204 121-254 76-40 131-38 275 12 733 253 1231 784 1415 1511 61 242 75 358 76 624 0 185-3 244-17 302-106 432-408 757-810 869-78 22-119 26-253 30-111 2-183-1-235-11z" /><path d="m3451 3369c-367-77-675-333-811-673-64-160-74-213-74-421-1-178 1-196 27-289 107-384 412-691 780-786 59-15 71-21 69-37-2-10-32-77-68-149-80-162-213-365-340-520-110-134-133-178-134-252 0-65 17-108 65-160 81-91 173-93 390-12 910 339 1438 1120 1439 2130 0 208-8 264-59 416-131 390-463 684-858 759-113 21-308 19-426-6z" /></g></symbol></defs><use id="check-usage" xlink:href="#check" class="sprite-symbol-usage" /><use id="checked-usage" xlink:href="#checked" class="sprite-symbol-usage" /><use id="chevron-usage" xlink:href="#chevron" class="sprite-symbol-usage" /><use id="cross-usage" xlink:href="#cross" class="sprite-symbol-usage" /><use id="cross-mark-usage" xlink:href="#cross-mark" class="sprite-symbol-usage" /><use id="info-usage" xlink:href="#info" class="sprite-symbol-usage" /><use id="info-outline-usage" xlink:href="#info-outline" class="sprite-symbol-usage" /><use id="play-usage" xlink:href="#play" class="sprite-symbol-usage" /><use id="question-usage" xlink:href="#question" class="sprite-symbol-usage" /><use id="quote-usage" xlink:href="#quote" class="sprite-symbol-usage" /></svg>