<svg fill="currentColor" height="512pt" preserveAspectRatio="xMidYMid meet" viewBox="0 0 512 512" width="512pt" xmlns="http://www.w3.org/2000/svg"><g transform="matrix(.1 0 0 -.1 0 512)"><path d="m2055 5109c-934-46-1429-236-1709-657-244-367-346-923-346-1892s102-1525 346-1892c232-348 612-537 1244-617 293-37 469-46 970-46 828 0 1257 54 1633 204 247 98 446 257 583 461 183 276 279 640 326 1240 17 221 17 1079 0 1300-47 603-142 963-328 1242-247 371-664 563-1376 633-341 33-937 44-1343 24zm1200-438c1075-103 1320-350 1417-1431 9-97 13-320 13-680s-4-583-13-680c-98-1084-348-1334-1432-1432-199-18-1161-18-1360 0-1084 98-1334 348-1432 1432-18 199-18 1161 0 1360 76 841 249 1150 732 1309 215 70 453 106 900 135 117 7 1071-3 1175-13z"/><path d="m3325 3394c-16-9-243-228-502-487l-473-471-207 205c-232 230-258 247-355 236-136-16-221-156-173-284 15-40 66-97 304-336 297-299 344-337 419-337 96 0 80-14 680 584 341 339 572 577 584 601 41 78 21 192-44 252-54 51-170 69-233 37z"/></g></svg>