<svg fill="currentColor" width="512" height="512" viewBox="0 0 512 512" xmlns="http://www.w3.org/2000/svg">
    <path d="m495 5109c-216-28-395-177-461-384-31-98-35-232-9-322 41-143 18-117 909-1010l831-833-831-833c-892-894-867-865-910-1012-24-80-24-220 0-300 56-189 202-335 391-391 80-24 220-24 300 0 147 43 118 18 1013 910l832 831 833-831c894-892 865-867 1012-910 79-23 219-23 300 0 188 55 336 203 391 391 23 81 23 221 0 300-43 147-18 118-910 1012l-831 833 831 833c891 893 868 867 909 1010 35 122 14 311-47 417-83 144-213 244-367 280-73 17-209 15-279-5-142-41-117-19-1009-909l-833-831-832 831c-707 705-842 835-893 861-108 56-223 77-340 62zm172-290c55-20 100-63 938-899 484-483 890-883 902-889 24-12 78-14 105-3 9 4 413 402 898 885 692 690 892 883 928 900 35 16 67 22 122 22 66 0 82-4 130-31 133-75 182-228 120-371-16-40-177-204-899-925-953-950-908-899-885-985 7-26 200-225 886-911 715-716 882-887 900-928 31-68 32-182 1-240-34-63-66-97-125-129-46-26-63-30-128-30-138 1-78-52-1045 920-503 505-882 879-898 885-44 16-89 12-127-11-19-12-422-410-895-885-956-961-897-908-1035-909-65 0-82 4-128 30-129 71-182 213-132 350 22 58 55 92 906 945 709 711 885 891 890 917 17 86 62 37-891 987-848 845-884 883-904 939-35 96-26 174 28 259 70 111 209 154 338 107z"
          transform="matrix(.1 0 0 -.1 0 512)"/>
</svg>