<svg fill="currentColor" height="480pt" preserveAspectRatio="xMidYMid meet" viewBox="0 0 480 480" width="480pt" xmlns="http://www.w3.org/2000/svg"><path d="m2215 4794c-770-78-1403-451-1814-1070-175-264-291-547-356-869-167-835 147-1731 800-2282 637-537 1501-710 2290-457 575 184 1069 590 1362 1119 140 252 236 540 280 834 24 160 24 502 0 662-103 691-477 1285-1047 1664-306 204-612 321-987 380-94 15-444 27-528 19zm321-924c62-31 123-91 154-155 20-41 25-65 24-135 0-72-4-93-27-137-60-116-160-178-287-178-126 0-228 63-285 176-87 170 5 385 189 445 61 20 172 12 232-16zm-5-1179c69-33 112-74 150-143l34-63v-725-725l-27-51c-40-76-70-107-140-145-58-31-70-34-148-34s-90 3-148 34c-69 37-109 79-144 151l-23 45v725 725l25 50c42 86 123 152 215 176 49 13 158 2 206-20z" transform="matrix(.1 0 0 -.1 0 480)"/></svg>