<svg fill="currentColor" height="448pt" preserveAspectRatio="xMidYMid meet" viewBox="0 0 385 448" width="385pt" xmlns="http://www.w3.org/2000/svg"><path d="m402 4460c-95-25-172-70-242-140-72-72-115-147-140-246-20-76-20-114-20-1838 0-1935-3-1821 61-1948 41-82 145-186 227-227 133-67 288-78 423-28 46 16 500 298 1475 913 1576 994 1515 952 1593 1113 87 180 78 382-24 557-35 60-106 137-160 174-22 15-490 287-1040 605-550 317-1175 679-1390 803-214 124-419 237-455 250-91 34-211 39-308 12z" transform="matrix(.1 0 0 -.1 0 448)"/></svg>